# xmcd CD database file
#
# Track frame offsets:
#	150
#	11362
#	23194
#	30377
#	41819
#	54095
#	71709
#	80409
#	94216
#	106299
#	117393
#	126218
#
# Disc length: 1840 seconds
#
# Revision: 0
# Processed by: cddbd v1.5.2PL0 Copyright (c) Steve Scherf et al.
# Submitted via: CDex 1.70beta2
#
DISCID=94072e0c
DTITLE=Carriere, Glory-Anne (07) - Cdn. - AB - Cty - Keeper of the Heart
DYEAR=2007
DGENRE=Country
TTITLE0=Don't It Make My Brown Eyes Blue
TTITLE1=I'd Like To Tell You
TTITLE2=I'll Be Your Everything
TTITLE3=Momma Brown
TTITLE4=I'll Be the One
TTITLE5=There Love Goes Again
TTITLE6=I'd Like To Take the Chance
TTITLE7=In My Dreams
TTITLE8=Keeper of the Heart
TTITLE9=Kelly Green
TTITLE10=Love Is A Rose
TTITLE11=Woman Alone
EXTD=YEAR: 2007
EXTT0=
EXTT1=
EXTT2=
EXTT3=
EXTT4=
EXTT5=
EXTT6=
EXTT7=
EXTT8=
EXTT9=
EXTT10=
EXTT11=
PLAYORDER=
